<svg id="Layer_1" enable-background="new 0 0 512 512" viewBox="0 0 512 512" xmlns="http://www.w3.org/2000/svg"><g><g><path clip-rule="evenodd" d="m133.201 46.799h371.799v417.863h-371.799z" fill="#dfebfa" fill-rule="evenodd"/></g><g><path clip-rule="evenodd" d="m133.201 46.799h25.172v417.863h-25.172z" fill="#b1dbfc" fill-rule="evenodd"/></g><g><path clip-rule="evenodd" d="m133.201 46.799h371.799v107.379h-371.799z" fill="#ff4756" fill-rule="evenodd"/></g><g><path clip-rule="evenodd" d="m133.201 46.799h25.172v107.379h-25.172z" fill="#d90d17" fill-rule="evenodd"/></g><g><path clip-rule="evenodd" d="m371.401 116.93h-143.294c-10.035 0-18.255-8.221-18.255-18.284 0-10.063 8.221-18.284 18.255-18.284h143.294c5.896-8.872 16.016-14.741 27.497-14.741 12.87 0 24.01 7.342 29.481 18.086h-16.555c-8.221 0-14.939 6.718-14.939 14.939 0 8.221 6.718 14.939 14.939 14.939h16.555c-5.471 10.743-16.611 18.085-29.481 18.085-11.481 0-21.601-5.839-27.497-14.74z" fill="#576473" fill-rule="evenodd"/></g><g><path clip-rule="evenodd" d="m173.992 194.175h290.245v270.487h-290.245z" fill="#576473" fill-rule="evenodd"/></g><g><path clip-rule="evenodd" d="m173.992 194.175h86.373v270.487h-86.373z" fill="#3b4855" fill-rule="evenodd"/></g><g><path clip-rule="evenodd" d="m173.992 194.175h290.245v63.015h-290.245z" fill="#ff4756" fill-rule="evenodd"/></g><g><path clip-rule="evenodd" d="m17.97 422.142h330.98c6.038 0 10.97 4.961 10.97 10.999 0 6.038-4.932 10.97-10.97 10.97h-330.98c-6.038 0-10.97-4.932-10.97-10.97 0-6.038 4.932-10.999 10.97-10.999z" fill="#dfebfa" fill-rule="evenodd"/></g><g><path clip-rule="evenodd" d="m266.12 351.473c-16.98-31.097-36.738-64.546-54.908-64.546h-96.947c-60.549 0-39.686 55.73-88.017 73.277-6.123 2.409-10.46 8.391-10.46 15.307v46.631h335.345v-33.818c0-37.447-62.194-33.846-85.013-36.851z" fill="#ff4756" fill-rule="evenodd"/></g><g><path clip-rule="evenodd" d="m144.596 286.926h-30.331c-60.549 0-39.686 55.73-88.017 73.277-6.123 2.409-10.46 8.391-10.46 15.307v46.631h38.438v-40.933c0-7.484 4.706-13.947 11.311-16.555 47.396-17.206 33.251-68.372 79.059-77.727z" fill="#d90d17" fill-rule="evenodd"/></g><g><path clip-rule="evenodd" d="m156.729 306.94h-42.464c-25.087 0-27.837 13.323-35.661 30.246-2.154 4.649-4.62 9.1-7.427 13.295h85.551v-43.541z" fill="#23a8fe" fill-rule="evenodd"/></g><g><path clip-rule="evenodd" d="m210.531 306.94h-30.671v43.541h62.845c-5.641-9.979-23.244-40.026-32.174-43.541z" fill="#23a8fe" fill-rule="evenodd"/></g><g><path clip-rule="evenodd" d="m179.86 306.94h12.983v43.541h-12.983z" fill="#0193fa" fill-rule="evenodd"/></g><g><path clip-rule="evenodd" d="m87.931 350.48c12.784-13.068 17.518-30.161 26.674-43.541h-.34c-25.087 0-27.837 13.323-35.661 30.246-2.154 4.649-4.62 9.1-7.427 13.295z" fill="#0193fa" fill-rule="evenodd"/></g><g><path clip-rule="evenodd" d="m282.958 465.201c18.879 0 34.272-15.392 34.272-34.243 0-18.879-15.392-34.271-34.272-34.271-18.879 0-34.271 15.392-34.271 34.271 0 18.851 15.392 34.243 34.271 34.243z" fill="#665e68" fill-rule="evenodd"/></g><g><path clip-rule="evenodd" d="m282.958 444.451c7.455 0 13.521-6.066 13.521-13.493 0-7.455-6.066-13.522-13.521-13.522-7.427 0-13.522 6.066-13.522 13.522 0 7.427 6.095 13.493 13.522 13.493z" fill="#dfebfa" fill-rule="evenodd"/></g><g><path clip-rule="evenodd" d="m266.772 422.142c.737-2.75 1.814-5.414 3.175-7.852 4.535-8.107 12.246-14.202 21.487-16.555-2.721-.68-5.556-1.049-8.476-1.049-8.872 0-16.923 3.345-23.018 8.873-2.75 2.494-5.102 5.442-6.945 8.731-1.361 2.438-2.438 5.102-3.175 7.852-.737 2.806-1.134 5.755-1.134 8.816 0 1.786.142 3.544.397 5.244.425 2.75 1.191 5.414 2.24 7.909 5.159 12.388 17.377 21.09 31.635 21.09 2.92 0 5.754-.369 8.476-1.049-10.517-2.665-19.078-10.205-23.188-20.041-1.021-2.494-1.786-5.159-2.211-7.909-.255-1.701-.397-3.458-.397-5.244 0-3.062.397-6.01 1.134-8.816z" fill="#554e56" fill-rule="evenodd"/></g><g><path clip-rule="evenodd" d="m282.958 417.436c1.729 0 3.373.312 4.904.907-5.046 1.956-8.646 6.86-8.646 12.614 0 5.726 3.6 10.63 8.646 12.586-1.531.595-3.175.907-4.904.907-7.455 0-13.522-6.038-13.522-13.493 0-7.483 6.067-13.521 13.522-13.521z" fill="#b1dbfc" fill-rule="evenodd"/></g><g><path clip-rule="evenodd" d="m17.97 422.142h36.256v21.969h-36.256c-6.038 0-10.97-4.932-10.97-10.97 0-6.038 4.932-10.999 10.97-10.999z" fill="#b1dbfc" fill-rule="evenodd"/></g><g><path clip-rule="evenodd" d="m77.244 465.201c18.879 0 34.272-15.392 34.272-34.243 0-18.879-15.393-34.271-34.272-34.271s-34.271 15.392-34.271 34.271c-.001 18.851 15.392 34.243 34.271 34.243z" fill="#665e68" fill-rule="evenodd"/></g><g><path clip-rule="evenodd" d="m77.244 444.451c7.455 0 13.521-6.066 13.521-13.493 0-7.455-6.066-13.522-13.521-13.522-7.427 0-13.521 6.066-13.521 13.522-.001 7.427 6.094 13.493 13.521 13.493z" fill="#dfebfa" fill-rule="evenodd"/></g><g><path clip-rule="evenodd" d="m61.058 422.142c.737-2.75 1.814-5.414 3.175-7.852 4.535-8.107 12.246-14.202 21.487-16.555-2.721-.68-5.556-1.049-8.476-1.049-8.872 0-16.923 3.345-23.018 8.873-2.75 2.494-5.102 5.442-6.945 8.731-1.361 2.438-2.438 5.102-3.175 7.852-.737 2.806-1.134 5.755-1.134 8.816 0 1.786.142 3.544.397 5.244.425 2.75 1.191 5.414 2.24 7.909 5.159 12.388 17.377 21.09 31.635 21.09 2.92 0 5.755-.369 8.476-1.049-10.517-2.665-19.078-10.205-23.188-20.041-1.021-2.494-1.786-5.159-2.211-7.909-.255-1.701-.397-3.458-.397-5.244 0-3.062.397-6.01 1.134-8.816z" fill="#554e56" fill-rule="evenodd"/></g><g><path clip-rule="evenodd" d="m77.244 417.436c1.729 0 3.373.312 4.876.907-5.046 1.956-8.618 6.86-8.618 12.614 0 5.726 3.572 10.63 8.618 12.586-1.502.595-3.147.907-4.876.907-7.455 0-13.521-6.038-13.521-13.493-.001-7.483 6.066-13.521 13.521-13.521z" fill="#b1dbfc" fill-rule="evenodd"/></g><g><path clip-rule="evenodd" d="m15.788 375.114v.397 20.07h13.663c5.641 0 10.233-4.621 10.233-10.233 0-5.641-4.592-10.233-10.233-10.233h-13.663z" fill="#ffd301" fill-rule="evenodd"/></g><g><path clip-rule="evenodd" d="m351.133 395.581v-7.257-.028c-.028-17.065-12.955-25.597-29.198-30.133v22.791c0 8.05 6.577 14.627 14.599 14.627z" fill="#ffd301" fill-rule="evenodd"/></g><g><path clip-rule="evenodd" d="m219.036 114.492c-5.499-3.175-9.185-9.099-9.185-15.846 0-10.063 8.221-18.284 18.255-18.284h143.294c5.896-8.872 16.016-14.741 27.497-14.741 10.857 0 20.467 5.216 26.504 13.295-5.528-4.11-12.359-6.548-19.758-6.548-11.481 0-21.572 5.868-27.497 14.741h-143.264c-10.063 0-18.284 8.249-18.284 18.284 0 3.316.878 6.406 2.438 9.099z" fill="#3b4855" fill-rule="evenodd"/></g></g><path d="m173.003 350.061c0 3.852 3.123 6.974 6.974 6.974h62.754c2.482 0 4.777-1.319 6.026-3.463 1.25-2.144 1.265-4.792.042-6.951-15.73-27.746-27.716-43.395-35.626-46.508-.813-.32-1.68-.484-2.554-.484h-30.641c-3.852 0-6.974 3.122-6.974 6.974v43.458zm13.948-36.484h21.928c3.223 2.311 10.736 11.354 21.699 29.51h-43.627zm-30.033-13.948h-42.383c-26.822 0-33.007 14.046-39.555 28.917-.761 1.729-1.547 3.514-2.401 5.359-2 4.345-4.302 8.476-6.846 12.279-1.431 2.14-1.567 4.893-.354 7.163 1.213 2.271 3.578 3.688 6.151 3.688h85.388c3.852 0 6.974-3.122 6.974-6.974v-43.458c0-3.852-3.122-6.974-6.974-6.974zm-6.974 43.457h-66.307c.553-1.1 1.088-2.213 1.605-3.336.885-1.91 1.707-3.776 2.503-5.583 6.037-13.708 9.067-20.59 26.79-20.59h35.409zm-51.89 87.298c0-11.287-9.183-20.47-20.47-20.47s-20.47 9.183-20.47 20.47c0 11.271 9.183 20.441 20.47 20.441s20.47-9.17 20.47-20.441zm-26.991 0c0-3.596 2.926-6.522 6.522-6.522s6.522 2.926 6.522 6.522c0 3.58-2.926 6.493-6.522 6.493-3.597 0-6.522-2.912-6.522-6.493zm211.843-20.47c-11.286 0-20.469 9.183-20.469 20.47 0 11.271 9.183 20.441 20.469 20.441 11.287 0 20.47-9.17 20.47-20.441.001-11.287-9.182-20.47-20.47-20.47zm0 26.963c-3.596 0-6.521-2.912-6.521-6.493 0-3.596 2.925-6.522 6.521-6.522s6.522 2.926 6.522 6.522c0 3.581-2.926 6.493-6.522 6.493zm-64.097-63.729c0 3.852-3.123 6.974-6.974 6.974h-14.033c-3.852 0-6.974-3.122-6.974-6.974s3.123-6.974 6.974-6.974h14.033c3.851 0 6.974 3.122 6.974 6.974zm-74.864 0c0 3.852-3.123 6.974-6.974 6.974h-14.061c-3.852 0-6.974-3.122-6.974-6.974s3.123-6.974 6.974-6.974h14.061c3.852 0 6.974 3.122 6.974 6.974zm360.581-332.712h-371.091c-3.852 0-6.974 3.122-6.974 6.974v220.686c0 3.852 3.123 6.974 6.974 6.974s6.974-3.122 6.974-6.974v-106.538h357.143v302.919c0 3.852 3.122 6.974 6.974 6.974s6.974-3.122 6.974-6.974v-417.067c0-3.852-3.122-6.974-6.974-6.974zm-364.117 107.174v-93.226h357.143v93.226zm287.641-40.516h-16.523c-4.376 0-7.936-3.561-7.936-7.936 0-4.376 3.561-7.936 7.936-7.936h16.523c2.426 0 4.679-1.261 5.946-3.33 1.268-2.068 1.37-4.647.269-6.809-6.868-13.484-20.524-21.86-35.64-21.86-12.094 0-23.416 5.436-30.981 14.712h-139.484c-13.893 0-25.195 11.315-25.195 25.223s11.302 25.224 25.195 25.224h139.479c7.551 9.276 18.874 14.712 30.986 14.712 15.116 0 28.773-8.377 35.64-21.861 1.101-2.162.999-4.741-.269-6.809-1.267-2.069-3.52-3.33-5.946-3.33zm-29.425 18.052c-8.732 0-16.831-4.338-21.667-11.602-1.292-1.944-3.472-3.11-5.805-3.11h-142.993c-6.202 0-11.247-5.058-11.247-11.276 0-6.217 5.045-11.275 11.247-11.275h142.993c2.331 0 4.506-1.164 5.801-3.102 4.854-7.27 12.956-11.611 21.672-11.611 5.102 0 9.949 1.466 14.057 4.103h-1.156c-12.067 0-21.884 9.817-21.884 21.884s9.817 21.884 21.884 21.884h1.157c-4.109 2.638-8.956 4.105-14.059 4.105zm65.215 62.386h-289.691c-3.852 0-6.974 3.122-6.974 6.974v85.148h-52.639c-37.729 0-48.165 20.739-57.372 39.037-7.153 14.213-13.908 27.639-32.858 34.519-.058.021-.116.044-.174.066-8.521 3.353-14.347 11.533-14.815 20.595-.028.255-.046.514-.046.777 0 .059.007.115.009.173-.001.075-.009.148-.009.223v42.137c-5.242 3.131-8.771 8.846-8.771 15.383 0 9.883 8.04 17.923 17.924 17.923h23.239c1.413 2.514 3.081 4.863 4.97 7.017h-30.388c-3.852 0-6.974 3.122-6.974 6.974s3.123 6.974 6.974 6.974h58.445c.957.067 1.92.113 2.895.113s1.937-.046 2.895-.113h199.533c.957.067 1.92.113 2.895.113.974 0 1.937-.046 2.895-.113h148.36c3.852 0 6.974-3.122 6.974-6.974s-3.122-6.974-6.974-6.974h-120.305c1.889-2.154 3.558-4.503 4.97-7.017h29.945c9.883 0 17.923-8.04 17.923-17.923 0-6.537-3.529-12.251-8.771-15.383v-29.349c0-18.455-13.824-33.898-32.167-35.953l-55.243-7.254c-19.028-34.607-37.947-64.971-59.219-64.971h-30.174v-15.279h275.743v200.102c0 3.852 3.122 6.974 6.974 6.974s6.974-3.122 6.974-6.974v-269.971c.001-3.852-3.121-6.974-6.973-6.974zm-440.621 194.089h6.663c1.786 0 3.239 1.453 3.239 3.24 0 1.786-1.453 3.239-3.239 3.239h-6.663zm-4.795 54.917c-2.192 0-3.975-1.783-3.975-3.975s1.783-3.976 3.975-3.976h18.026c-.026.597-.046 1.195-.046 1.797 0 2.091.159 4.146.462 6.153h-18.442zm34.095 4.488c-.044-.115-.088-.229-.138-.341-1.304-3.18-2.029-6.657-2.029-10.301 0-15.017 12.216-27.233 27.232-27.233s27.232 12.216 27.232 27.233c0 3.645-.725 7.121-2.029 10.301-.05.112-.094.226-.138.341-3.851 9.036-12.452 15.576-22.649 16.477h-4.832c-10.197-.901-18.798-7.44-22.649-16.477zm60.987 9.46h133.479c1.412 2.514 3.081 4.863 4.97 7.017h-143.42c1.89-2.154 3.558-4.503 4.971-7.017zm128.682-13.948h-123.885c.302-2.008.462-4.063.462-6.153 0-.603-.02-1.201-.046-1.797h123.053c-.026.597-.046 1.195-.046 1.797 0 2.09.16 4.145.462 6.153zm38.302 20.965c-10.198-.902-18.8-7.443-22.651-16.482-.043-.112-.085-.223-.134-.331-1.306-3.181-2.031-6.66-2.031-10.306 0-15.017 12.216-27.233 27.232-27.233 15.017 0 27.233 12.216 27.233 27.233 0 3.642-.724 7.116-2.027 10.295-.052.116-.097.234-.143.353-3.853 9.033-12.452 15.57-22.647 16.471zm68.283-20.965h-25.147c.302-2.008.462-4.063.462-6.153 0-.603-.02-1.201-.046-1.797h24.731c2.154 0 3.975 1.821 3.975 3.976 0 2.153-1.821 3.974-3.975 3.974zm-4.795-48.707v.269h-7.597c-4.205 0-7.625-3.42-7.625-7.624v-13.723c8.93 2.959 15.222 11.326 15.222 21.078zm-110.393-76.403c9.031 11.86 18.023 27.673 26.395 42.995 1.068 1.954 3.004 3.281 5.212 3.57l49.615 6.515v15.967c0 11.895 9.678 21.573 21.573 21.573h7.597v12.59h-23.025c-6.196-14.916-20.914-25.435-38.046-25.435s-31.849 10.519-38.045 25.435h-129.231c-6.196-14.916-20.913-25.435-38.045-25.435s-31.849 10.519-38.045 25.435h-16.32v-12.59h6.663c9.477 0 17.188-7.71 17.188-17.187s-7.711-17.188-17.188-17.188h-3.078c.708-.567 1.5-1.042 2.364-1.39 24.081-8.782 32.779-26.069 40.455-41.323 8.816-17.52 15.779-31.358 44.912-31.358h96.762c3.974 0 11.068 3.093 22.287 17.826zm-52.462-88.984h275.743v7.017h-275.743zm275.743-20.964v7.016h-275.743v-7.016zm-275.743 48.947v-7.017h275.743v7.017z"/></svg>