<svg id="Layer_1" enable-background="new 0 0 370 244" height="512" viewBox="0 0 370 244" width="512" xmlns="http://www.w3.org/2000/svg"><g><path d="m0 0h370v244h-370z" fill="#ffe600"/><path d="m12.686 237.657c-3.489 0-6.343-2.854-6.343-6.343v-218.628c0-3.489 2.854-6.343 6.343-6.343h344.629c3.489 0 6.343 2.854 6.343 6.343v218.629c0 3.489-2.854 6.343-6.343 6.343h-344.629z"/><path d="m116.406-9.594h137.188v344.629h-137.188z" fill="#ffe600" transform="matrix(0 1 -1 0 347.72 -22.28)"/><path d="m69.629 176.146c-7.668 0-13.883 6.216-13.883 13.884 0 7.667 6.215 13.883 13.883 13.883 7.669 0 13.883-6.216 13.883-13.883.001-7.668-6.214-13.884-13.883-13.884zm0 19.563c-3.137 0-5.679-2.543-5.679-5.679 0-3.137 2.543-5.679 5.679-5.679 3.137 0 5.679 2.543 5.679 5.679.001 3.136-2.542 5.679-5.679 5.679z"/><path d="m168.578 176.146c-7.668 0-13.883 6.216-13.883 13.884 0 7.667 6.215 13.883 13.883 13.883s13.883-6.216 13.883-13.883c0-7.668-6.216-13.884-13.883-13.884zm0 19.563c-3.138 0-5.68-2.543-5.68-5.679 0-3.137 2.542-5.679 5.68-5.679 3.136 0 5.68 2.543 5.68 5.679s-2.544 5.679-5.68 5.679z"/><path d="m336.933 179.205c-.735-1.149-18.845-26.274-20.8-28.328-1.955-2.055-5.927-4.971-17.973-8.914-12.045-3.943-25.573-6.755-28.089-5.861-2.515.895-21.233 9.309-21.233 9.309s-39.732-8.259-41.676-2.318c-.378 1.154-.18 5.691.09 9.728l-2.683-.878c-1.21-.396-2.513.264-2.908 1.473l-.538 1.643c-.396 1.21.264 2.511 1.474 2.907l13.908 4.552c2.555-6.224 9.519-9.514 16.017-7.387 6.496 2.126 10.168 8.898 8.548 15.428l54.392 17.804c2.554-6.224 9.519-9.514 16.015-7.387 6.498 2.127 10.168 8.898 8.549 15.428l9.501 3.11c1.209.396 2.511-.263 2.907-1.473l.538-1.643c.396-1.209-.264-2.512-1.473-2.907l-2.338-.765 5.083-5.307s3.424-7.064 2.689-8.214zm-81.818-31.98c7.169-3.968 14.569-7.231 16.005-7.821 2.327-.288 13.408 1.836 24.821 5.475l-4.644 14.189zm39.669 12.985 4.64-14.177c11.661 4.007 12.553 5.84 14.197 7.227 1.04 1.37 4.433 8.561 7.52 15.578z"/><path d="m310.671 183.441c-5.135-1.681-10.636.867-12.739 5.732-.126.292-.241.591-.342.899-1.782 5.443 1.186 11.3 6.629 13.081 5.445 1.782 11.301-1.186 13.083-6.63.101-.308.184-.617.255-.927 1.181-5.166-1.75-10.473-6.886-12.155zm.527 10.68c-.027.124-.061.248-.101.371-.66 2.016-2.829 3.116-4.845 2.456-2.015-.66-3.115-2.829-2.455-4.845.04-.123.086-.243.138-.359.787-1.785 2.814-2.716 4.706-2.097 1.893.619 2.977 2.569 2.557 4.474z"/><path d="m231.715 157.597c-5.135-1.681-10.637.867-12.74 5.731-.126.292-.241.591-.342.899-.27.824-.418 1.656-.478 2.484h-8.852l-31.637-29.528c.909-1.296 1.447-2.87 1.447-4.573 0-4.406-3.572-7.978-7.977-7.978-4.407 0-7.978 3.572-7.978 7.978 0 1.727.555 3.322 1.488 4.629l-1.98 3.034-24.045-9.047v-3.086s-33.852-1.408-42.673 4.345c-4.707 3.07-10.287 13.418-14.468 22.404h-3.846l-36.53 5.113v18.697h-4.315v7.767h4.315v3.931h9.981c-.002-.122-.009-.243-.009-.366 0-10.247 8.306-18.553 18.553-18.553 10.246 0 18.553 8.306 18.553 18.553 0 .123-.007.243-.009.366h39.608 10.841 11.412c-.002-.122-.01-.243-.01-.366 0-10.247 8.306-18.553 18.553-18.553s18.554 8.306 18.554 18.553c0 .123-.007.243-.009.366h10.843v-29.147h-41.974l13.59-20.815c.504.099 1.023.154 1.556.154 1.796 0 3.447-.6 4.78-1.602l32.398 30.238h9.959c.637 3.656 3.216 6.851 6.99 8.086 5.443 1.782 11.3-1.187 13.082-6.63.101-.308.183-.618.255-.927 1.18-5.168-1.75-10.475-6.886-12.157zm-98.847-2.709h-45.028c4.176-8.589 8.498-15.79 11.252-17.586 2.519-1.644 12.06-3.563 30.656-3.563 1.12 0 2.167.007 3.12.018zm16.103 6.36h-10.349v-6.36-16.722l20.407 7.677zm10.761-16.482-21.11-7.942v-4.257l23.341 8.782zm11.404-7.958c-2.319 0-4.199-1.879-4.199-4.198s1.88-4.199 4.199-4.199c2.32 0 4.198 1.88 4.198 4.199 0 .704-.175 1.366-.481 1.948l-2.871-2.68-1.714 1.836 2.805 2.618c-.58.302-1.237.476-1.937.476zm61.104 31.468c-.027.124-.06.248-.101.371-.66 2.016-2.829 3.116-4.845 2.456s-3.116-2.829-2.456-4.846c.04-.123.087-.243.139-.358.787-1.785 2.814-2.716 4.707-2.097 1.893.62 2.977 2.57 2.556 4.474z"/><path d="m26.621 88.835h-13.935l10.181-10.835h13.935z" fill="#ffe600"/><path d="m40.556 88.835h-13.935l10.181-10.835h13.935z"/><g><path d="m54.492 88.835h-13.936l10.181-10.835h13.936z" fill="#ffe600"/><path d="m68.427 88.835h-13.935l10.181-10.835h13.935z"/></g><g><path d="m82.362 88.835h-13.935l10.181-10.835h13.935z" fill="#ffe600"/><path d="m96.298 88.835h-13.936l10.181-10.835h13.936z"/><g><path d="m110.233 88.835h-13.935l10.181-10.835h13.935z" fill="#ffe600"/><path d="m124.168 88.835h-13.935l10.181-10.835h13.935z"/></g></g><path d="m138.104 88.835h-13.936l10.181-10.835h13.936z" fill="#ffe600"/><path d="m152.039 88.835h-13.935l10.181-10.835h13.935z"/><g><path d="m165.974 88.835h-13.935l10.181-10.835h13.935z" fill="#ffe600"/><path d="m179.91 88.835h-13.936l10.181-10.835h13.936z"/></g><g><path d="m193.845 88.835h-13.935l10.181-10.835h13.935z" fill="#ffe600"/><path d="m207.78 88.835h-13.935l10.181-10.835h13.935z"/><g><path d="m221.716 88.835h-13.936l10.181-10.835h13.936z" fill="#ffe600"/><path d="m235.651 88.835h-13.935l10.181-10.835h13.935z"/></g></g><path d="m249.586 88.835h-13.935l10.181-10.835h13.935z" fill="#ffe600"/><path d="m263.522 88.835h-13.936l10.181-10.835h13.936z"/><g><path d="m277.457 88.835h-13.935l10.181-10.835h13.935z" fill="#ffe600"/><path d="m291.392 88.835h-13.935l10.181-10.835h13.935z"/></g><g><path d="m305.328 88.835h-13.936l10.181-10.835h13.936z" fill="#ffe600"/><path d="m319.263 88.835h-13.935l10.181-10.835h13.935z"/><g><path d="m333.198 88.835h-13.935l10.181-10.835h13.935z" fill="#ffe600"/><path d="m347.134 88.835h-13.936l10.181-10.835h13.936z"/></g></g><path d="m357.314 88.835h-10.18l10.181-10.835z" fill="#ffe600"/><path d="m12.686 78h10.181l-10.181 10.835z"/><g fill="#fff"><path d="m82.137 57.718h-4.369v-24.264h-5.472v-4.03h15.356v4.03h-5.515z"/><path d="m105.682 48.725c0 3.182-.467 5.091-1.612 6.703-1.272 1.782-3.394 2.715-6.108 2.715s-4.836-.933-6.108-2.715c-1.146-1.612-1.612-3.521-1.612-6.703v-10.308c0-3.182.467-5.09 1.612-6.702 1.272-1.782 3.393-2.715 6.108-2.715s4.836.933 6.108 2.715c1.145 1.612 1.612 3.521 1.612 6.702zm-11.071-.085c0 2.248.127 3.012.551 3.86.509.934 1.569 1.527 2.8 1.527 1.23 0 2.291-.594 2.8-1.527.466-.891.551-1.569.551-3.86v-10.138c0-2.291-.085-2.97-.551-3.86-.509-.933-1.57-1.527-2.8-1.527s-2.291.594-2.8 1.527c-.424.849-.551 1.612-.551 3.86z"/><path d="m124.732 57.718-3.648-19.174-3.436 19.174h-4.072l-5.302-28.294h4.242l3.224 18.241 3.394-18.241h3.775l3.733 18.241 2.842-18.241h4.115l-4.793 28.294z"/><path d="m147.517 51.567-1.146 6.151h-4.284l5.43-28.294h5.981l5.727 28.294h-4.497l-1.188-6.151zm2.97-16.713-2.291 12.684h4.624z"/><path d="m175.941 57.718-3.648-19.174-3.436 19.174h-4.072l-5.303-28.294h4.242l3.224 18.241 3.394-18.241h3.775l3.733 18.241 2.842-18.241h4.115l-4.793 28.294z"/><path d="m190.962 51.567-1.146 6.151h-4.284l5.43-28.294h5.981l5.727 28.294h-4.497l-1.188-6.151zm2.969-16.713-2.291 12.684h4.624z"/><path d="m213.192 57.718h-4.369v-11.03l-6.363-17.265h4.836l3.775 11.962 3.903-11.962h4.751l-6.533 17.265z"/><path d="m242.55 57.718h-14.805v-4.115l9.884-20.149h-8.95v-4.03h13.744v4.03l-9.841 20.234h9.969v4.03z"/><path d="m260.878 48.725c0 3.182-.467 5.091-1.612 6.703-1.272 1.782-3.394 2.715-6.108 2.715s-4.836-.933-6.108-2.715c-1.146-1.612-1.612-3.521-1.612-6.703v-10.308c0-3.182.467-5.09 1.612-6.702 1.272-1.782 3.394-2.715 6.108-2.715s4.836.933 6.108 2.715c1.145 1.612 1.612 3.521 1.612 6.702zm-11.072-.085c0 2.248.127 3.012.551 3.86.509.934 1.569 1.527 2.8 1.527 1.23 0 2.291-.594 2.8-1.527.466-.891.551-1.569.551-3.86v-10.138c0-2.291-.085-2.97-.551-3.86-.509-.933-1.57-1.527-2.8-1.527s-2.291.594-2.8 1.527c-.424.849-.551 1.612-.551 3.86z"/><path d="m280.606 57.718h-3.902l-7.636-18.834v18.834h-4.157v-28.294h4.412l7.126 17.604v-17.604h4.157z"/><path d="m297.704 33.454h-8.441v7.466h6.235v4.03h-6.235v8.738h8.441v4.03h-12.811v-28.294h12.811z"/></g></g></svg>