<svg id="Layer_1" viewBox="0 0 64 64" xmlns="http://www.w3.org/2000/svg" data-name="Layer 1"><g fill="#333"><path d="m9.19 45.09a3.3 3.3 0 1 0 4.66 1.7 3.31 3.31 0 0 0 -4.66-1.7zm2.21 4.72a1.94 1.94 0 1 1 1-2.84 1.95 1.95 0 0 1 -1.01 2.84z"/><path d="m28.31 36.17a3.3 3.3 0 1 0 4.69 1.7 3.31 3.31 0 0 0 -4.69-1.7zm2.21 4.72a1.94 1.94 0 1 1 1-2.84 1.94 1.94 0 0 1 -1 2.85z"/><path d="m37.6 33.6-1.62-2a3.64 3.64 0 0 0 -4-1.18l-4.61 1.38a6.39 6.39 0 0 1 -3.46.06 23.06 23.06 0 0 0 -11.35-.39c-5.67 1.38-9.1 7.23-11.31 9.14a2.14 2.14 0 0 0 -.55 2.52l1.59 3.41a1.42 1.42 0 0 0 -.29 1.59l.93 2a1.37 1.37 0 0 0 1.82.66l2.19-1c0-.08-.08-.17-.11-.25a4.21 4.21 0 0 1 7.75-3.31l11.49-5.36c0-.08-.08-.17-.11-.25a4.21 4.21 0 0 1 5.37-5.49 4.26 4.26 0 0 1 2.37 2.18l3.39-1.58a1.38 1.38 0 0 0 .51-2.13zm-32.24 11.53-1.09.51a.57.57 0 0 1 -.75-.26.56.56 0 0 1 .26-.75l1.09-.51a.57.57 0 0 1 .76.25.56.56 0 0 1 -.27.76zm7.64-6.38a.64.64 0 0 1 -.31.84l-9.19 4.27a.63.63 0 0 1 -.84-.31l-.52-1.09a.55.55 0 0 1 .14-.64 23.45 23.45 0 0 0 2.2-2.36 25.29 25.29 0 0 1 5.57-5.25.64.64 0 0 1 .91.27zm4.19.88-1.08.51a.57.57 0 0 1 -.76-.26.56.56 0 0 1 .27-.75l1.08-.51a.57.57 0 0 1 .76.25.56.56 0 0 1 -.3.76zm6.35-5.1-8.2 3.83a.63.63 0 0 1 -.84-.31l-2-4.21a.62.62 0 0 1 .41-.86 21.19 21.19 0 0 1 10.49.37.63.63 0 0 1 .11 1.18z"/><path d="m51.6 45.57a4.23 4.23 0 0 0 4 5.71 4.28 4.28 0 0 0 4.15-4 4.23 4.23 0 0 0 -8.17-1.74zm2.16 1.48a1.8 1.8 0 0 1 3.48-.64 1.84 1.84 0 0 1 .07 1.07 1.78 1.78 0 0 1 -1.25 1.29 1.8 1.8 0 0 1 -2.3-1.72z"/><path d="m41 30.19v-15.44h-1.55v-2h4.33l15.37 18h-5.95l-10.63-16h-.27v15.44h2.06v2.09a.68.68 0 0 1 -.68.68h-1v.28a.31.31 0 0 1 -.31.31h-.14a1 1 0 0 0 .27.4 6.42 6.42 0 0 1 1.21 1.35 2 2 0 0 1 -.16 2.2 2.61 2.61 0 0 1 -2.62.67 1.65 1.65 0 0 1 -1.15-1.05 4.56 4.56 0 0 1 -.11-1.44c.29-.34.67-.15.68.14a1.36 1.36 0 0 0 .65 1.18 1.31 1.31 0 0 0 1.63-.37c.43-.65-.41-1.41-.86-1.79a1.93 1.93 0 0 1 -.69-1.29h-.19a.31.31 0 0 1 -.31-.31v-.24h-1a.68.68 0 0 1 -.68-.68v-2.13z"/><path d="m51.52 32.63h12v12.92h-2.52a5.6 5.6 0 0 0 -10.79 0h-3.8v-1.35h.24a1 1 0 0 0 1-1v-.86a.91.91 0 0 0 -.91-.91h-.31v-3.64a5.16 5.16 0 0 1 5.09-5.16z"/></g></svg>