<svg clip-rule="evenodd" fill-rule="evenodd" height="43.349mm" image-rendering="optimizeQuality" shape-rendering="geometricPrecision" text-rendering="geometricPrecision" viewBox="0 0 4335 4335" width="43.349mm" xmlns="http://www.w3.org/2000/svg"><g id="Layer_x0020_1"><g id="_670335416" fill="#232021"><path d="m2209 2338c0-403 7-675 158-1048 336-830 877-606 1036 344l41 451c0 419-131 1218-514 1407-50 25-78 26-145 24-375-10-575-819-575-1179zm-1696-252c0 382 6 641 124 997 56 167 190 442 320 577 281 291 563 323 965 381 667 97 1182 66 1506-595 336-685 422-2244-114-2912-128-159-273-187-275-187l-107-21c-27-3-107 7-143 15-38 8-78 28-109 45-405 232-604 914-653 1352-9 82-29 201-29 279-113-293 95-943 184-1162 71-176 227-415 389-523 76-51 89-50 155-69 41-11 27-1 57-27-185-43-481-28-687-28-895 0-1232 378-1470 1123-60 189-114 511-114 755z"/><path d="m2335 1497c0 48 226 517 36 1186-50 178-108 176 94 520 151 256 388 301 587 49 341-432 372-1456 166-1965-69-172-191-406-407-406-85 0-142 35-184 82l-36 35c-127 111-257 427-257 500z"/></g></g></svg>