<svg id="Layer_1" enable-background="new 0 0 50 50" height="512" viewBox="0 0 50 50" width="512" xmlns="http://www.w3.org/2000/svg"><g><g><path d="m45.0389 41.4918v5.9007c0 .3489-.2828.6317-.6317.6317h-3.3065c-.3489 0-.6317-.2828-.6317-.6317v-5.9007z" fill="#444445"/><path d="m4.95 41.4918v5.9007c0 .3489.2828.6317.6317.6317h3.3065c.3489 0 .6317-.2828.6317-.6317v-5.9007z" fill="#444445"/><path d="m48.3206 23.4385h-3.9782l-.4593-3.6867s.7054.7637 1.8268.6902v-2.7022h2.2962c.411 0 .751.3222.7713.7333l.2216 4.2506c.0203.3886-.2893.7148-.6784.7148z" fill="#696967"/><path d="m45.7099 33.5901v1.9715c0 .7586-.6165 1.3752-1.3777 1.3752h-38.6755c-.7612 0-1.3752-.6165-1.3752-1.3752v-1.9715c0-.4871.1041-.9692.3096-1.4107.1649-.3527.2664-.7358.2994-1.124.7915-9.2001 1.8775-17.6594 3.7424-24.1497.2309-.8043.5227-1.5883.9033-2.3318.6064-1.1875 1.2864-2.0577 2.0831-2.4282.2537-.1192.5328-.17.8145-.17h25.1215c.2816 0 .5607.0508.8145.17.7967.3704 1.4767 1.2407 2.0831 2.4282.3806.7434.6724 1.5274.9033 2.3318 1.8649 6.4903 2.9508 14.9496 3.7425 24.1497.033.3882.1345.7713.2994 1.124.2053.4415.3118.9236.3118 1.4107z" fill="#e4e4e3"/><path d="m43.2057 21.4645c.0253.2893-.2055.5405-.4948.5405h-35.433c-.2867 0-.5176-.2512-.4922-.5405.3324-3.8262.9033-7.4697 1.8141-10.8595.1319-.4973.5633-.8627 1.0758-.916 1.8395-.1928 5.0492-.241 8.6065-.2537 1.2889-.0051 2.626-.0051 3.9581-.0051h1.0073c.5861 0 1.1722 0 1.7482-.0025h.4415c1.9867.0051 4.0469 0 6.0108.0076 1.3803.0051 2.7123.0127 3.9378.033.34.0076.6724.0127.9946.0203.779.0178 1.5021.0431 2.1516.0736.6825.033 1.2838.0736 1.7837.1269.5125.0533.9413.4186 1.0758.916.9109 3.3897 1.4818 7.0332 1.8142 10.8594z" fill="#696967"/><path d="m17.1682 23.7456v.7257c0 .1776-.1446.3248-.3248.3248h-7.5255c-.137 0-.269-.0558-.3628-.1522l-.7181-.7385c-.1649-.1725-.0634-.4821.1776-.4846h.0051 8.4237c.1802 0 .3248.1446.3248.3248z" fill="#606061"/><path d="m41.5294 23.9054-.7181.7384c-.0939.0964-.2258.1522-.3628.1522h-7.5255c-.1801 0-.3247-.1472-.3247-.3248v-.7257c0-.1801.1446-.3247.3247-.3247h8.4237.0051c.241.0026.3425.3121.1776.4846z" fill="#606061"/><path d="m38.0829 31.1873c-.3857 1.4792-1.5376 2.8214-3.0244 4.1027-.1801.1573-.4135.2411-.6521.2411h-18.824c-.2359 0-.4694-.0837-.6521-.2411-1.4843-1.2813-2.6388-2.6235-3.0244-4.1027-.1598-.6292.3349-1.2407.9845-1.2407h24.2106c.6496 0 1.1443.6115.9819 1.2407z" fill="#c7c7c7"/><path d="m45.3725 36.9368-.307 4.6381c-.1142 1.733-1.5503 3.0803-3.2883 3.0803h-33.5655c-1.738 0-3.1741-1.3473-3.2883-3.0803l-.307-4.6381z" fill="#696967"/><path d="m17.52 39.507h14.95v2.575h-14.95z" fill="#e4e4e3"/><path d="m6.1057 19.7519-.4592 3.6867h-3.7978c-.4859 0-.8726-.4072-.8475-.8924l.2102-4.073c.0203-.411.3603-.7333.7713-.7333h2.2987v2.7022c1.119.0735 1.8243-.6902 1.8243-.6902z" fill="#696967"/><path d="m38.2094 34.5426s1.6532-6.2908 6.1262-6.6381l.1442 4.5751c-.0183.6817-.2862 1.1856-.8056 1.5104-.2477.1549-.5373.2294-.8288.2486z" fill="#f5b948"/><path d="m11.7795 34.5426s-1.6532-6.2908-6.1262-6.6381l-.1442 4.5751c.0183.6817.2862 1.1856.8056 1.5104.2477.1549.5373.2294.8288.2486z" fill="#f5b948"/><path d="m9.1555 31.9307c0 .8246-.6698 1.4945-1.497 1.4945s-1.497-.6699-1.497-1.4945c0-.8297.6698-1.4995 1.497-1.4995s1.497.6699 1.497 1.4995z" fill="#fff"/><path d="m43.8273 31.9307c0 .8246-.6698 1.4945-1.497 1.4945s-1.497-.6699-1.497-1.4945c0-.8297.6698-1.4995 1.497-1.4995s1.497.6699 1.497 1.4995z" fill="#fff"/><g fill="#afaeab"><path d="m13.4281 31.1771c1.9279-.0523 3.8559-.0768 5.7838-.0971l5.7838-.0296 5.7838.0291 2.8919.0354 2.8919.0622-2.8919.0622-2.8919.0354-5.7838.0291-5.7838-.0296c-1.9279-.0203-3.8559-.0448-5.7838-.0971z"/><path d="m14.3574 32.3856c1.7731-.0523 3.5461-.0768 5.3192-.0972l5.3192-.0296 5.3192.0291 2.6596.0354c.8865.0211 1.7731.0334 2.6596.0622-.8865.0287-1.7731.0411-2.6596.0622l-2.6596.0354-5.3192.0291-5.3192-.0296c-1.7731-.0202-3.5462-.0447-5.3192-.097z"/><path d="m15.1484 33.4143c1.6412-.0523 3.2824-.0768 4.9236-.0971 1.6412-.0209 3.2824-.019 4.9236-.0296l4.9236.0291 2.4618.0354c.8206.0211 1.6412.0334 2.4618.0622-.8206.0288-1.6412.0411-2.4618.0622l-2.4618.0354-4.9236.0291c-1.6412-.0106-3.2824-.0087-4.9236-.0296-1.6411-.0202-3.2824-.0447-4.9236-.0971z"/><path d="m15.83 34.3007c1.5276-.0523 3.0552-.0768 4.5828-.0972 1.5276-.0209 3.0552-.019 4.5828-.0296 1.5276.0099 3.0552.0089 4.5828.0291l2.2914.0354c.7638.0211 1.5276.0334 2.2914.0622-.7638.0288-1.5276.0411-2.2914.0622l-2.2914.0354c-1.5276.0202-3.0552.0192-4.5828.0291-1.5276-.0106-3.0552-.0087-4.5828-.0296-1.5276-.0202-3.0552-.0447-4.5828-.097z"/></g><circle cx="24.996" cy="32.738" fill="#696967" r="1.845"/><g fill="#fff"><g opacity=".2"><path d="m22.2402 9.4303-6.7034 12.5747h-3.9582l6.7035-12.5696c1.2889-.0051 2.626-.0051 3.9581-.0051z"/><path d="m25.4372 9.4277-6.706 12.5773h-2.1897l6.706-12.5747c.5861 0 1.1722 0 1.7482-.0025h.4415z"/></g><g opacity=".2"><path d="m35.3858 9.4683-6.6832 12.5367h-3.9581l6.7035-12.5696c1.3802.005 2.7123.0127 3.9378.0329z"/><path d="m38.532 9.5622-6.635 12.4428h-2.1897l6.673-12.5164c.7791.0178 1.5022.0432 2.1517.0736z"/></g></g></g></g></svg>