<svg id="Flat" height="512" viewBox="0 0 128 128" width="512" xmlns="http://www.w3.org/2000/svg"><g fill="#2f3a5a"><path d="m3 34.19 6.21.45a1.93 1.93 0 0 1 1.59 1.36l4.2 7.85-12.35-1.1a2.14 2.14 0 0 1 -1.65-2.24v-4.06a2.07 2.07 0 0 1 2-2.26z"/><path d="m125 34.19-6.21.45a1.93 1.93 0 0 0 -1.59 1.36l-4.52 7.81 12.67-1.1a2.14 2.14 0 0 0 1.65-2.2v-4.06a2.07 2.07 0 0 0 -2-2.26z"/><path d="m98.26 95.58v13.9a3.77 3.77 0 0 0 3.82 3.71h12.26a3.76 3.76 0 0 0 3.81-3.71v-13.81z"/><path d="m9.83 109.48a3.77 3.77 0 0 0 3.82 3.71h12.25a3.76 3.76 0 0 0 3.82-3.71v-13.9l-19.89.21z"/></g><path d="m123.42 63.88-4.32-5.82c-.86-7.33-13.67-38-19.28-40.85s-33.82-2.38-33.82-2.38-32.22-.43-37.83 2.38-18.43 33.52-19.29 40.85l-4.32 5.82a5.18 5.18 0 0 0 -.92 3.19l1.36 25.85v.08a4.84 4.84 0 0 0 4.9 4.45h108.23a4.84 4.84 0 0 0 4.87-4.45v-.06l1.31-25.85a5.18 5.18 0 0 0 -.89-3.21z" fill="#a5ceac"/><path d="m105.39 41.28-7.5-18.49a2.73 2.73 0 0 0 -2.53-1.7h-62.74a2.73 2.73 0 0 0 -2.53 1.7l-7.5 18.49a2.74 2.74 0 0 0 2.53 3.72h77.74a2.73 2.73 0 0 0 2.53-3.72z" fill="#3d4c70"/><g opacity=".5"><path d="m102.86 45h-77.73a2.72 2.72 0 0 1 -2.53-3.75l.06-.16h77.69a.57.57 0 0 0 .53-.78l-7.81-19.22h2.3a2.74 2.74 0 0 1 2.53 1.71l7.49 18.49a2.72 2.72 0 0 1 -2.53 3.71z" fill="#2f3a5a"/></g><path d="m114 62.22a3.11 3.11 0 0 0 -2.44-.67c-5.48.75-11.4 4.12-14.8 6.35a5.6 5.6 0 0 0 -2.61 4.18 5.46 5.46 0 0 0 5.36 6 60.61 60.61 0 0 0 15.83-2.28 3.17 3.17 0 0 0 2.32-2.89c.34-6.33-2.17-9.4-3.66-10.69z" fill="#fff"/><path d="m117.61 72.88a3.18 3.18 0 0 1 -2.31 2.9 60.68 60.68 0 0 1 -15.83 2.27 5.41 5.41 0 0 1 -4.47-2.41 5.11 5.11 0 0 0 1.11.13 60.18 60.18 0 0 0 15.89-2.28 3.17 3.17 0 0 0 2.32-2.89c.24-4.5-.94-7.35-2.2-9.08a3.18 3.18 0 0 1 1.89.7c1.49 1.3 3.99 4.36 3.6 10.66z" fill="#dbe2eb"/><path d="m31.28 67.9c-3.41-2.23-9.33-5.6-14.8-6.35a3.13 3.13 0 0 0 -2.45.67c-1.54 1.29-4 4.36-3.66 10.66a3.17 3.17 0 0 0 2.32 2.89 60.61 60.61 0 0 0 15.83 2.28 5.46 5.46 0 0 0 5.36-6 5.61 5.61 0 0 0 -2.6-4.15z" fill="#fff"/><path d="m33.3 75.09a5.4 5.4 0 0 1 -4.78 3 60.68 60.68 0 0 1 -15.83-2.27 3.18 3.18 0 0 1 -2.31-2.9c-.38-6.34 2.11-9.4 3.62-10.7a3.09 3.09 0 0 1 2.11-.69 14.2 14.2 0 0 0 -1.75 8.47 3.18 3.18 0 0 0 2.31 2.9 61 61 0 0 0 15.83 2.26 5.29 5.29 0 0 0 .8-.07z" fill="#dbe2eb"/><path d="m82.09 68.79h-36.2a4.5 4.5 0 0 0 -4.37 5.58l4.48 13.2a4.51 4.51 0 0 0 4.37 3.43h27.24a4.51 4.51 0 0 0 4.39-3.43l4.48-13.2a4.5 4.5 0 0 0 -4.39-5.58z" fill="#3d4c70"/><g fill="#2f3a5a"><path d="m78.14 77.37h-28.3a1 1 0 0 1 0-2h28.3a1 1 0 0 1 0 2z"/><path d="m75.77 84.42h-23.56a1 1 0 1 1 0-2h23.56a1 1 0 0 1 0 2z"/></g></svg>