<svg id="Layer_1" height="512" viewBox="0 0 48 48" width="512" xmlns="http://www.w3.org/2000/svg" xmlns:xlink="http://www.w3.org/1999/xlink"><linearGradient id="lg1"><stop offset="0" stop-color="#5f5f60"/><stop offset="1" stop-color="#282828"/></linearGradient><linearGradient id="SVGID_1_" gradientUnits="userSpaceOnUse" x1="38.692" x2="38.692" xlink:href="#lg1" y1="23.92" y2="26.609"/><linearGradient id="SVGID_2_" gradientTransform="matrix(-1 0 0 1 820.841 0)" gradientUnits="userSpaceOnUse" x1="811.533" x2="811.533" xlink:href="#lg1" y1="23.92" y2="26.609"/><linearGradient id="lg2"><stop offset="0" stop-color="#fff"/><stop offset=".9974" stop-color="#fff" stop-opacity="0"/></linearGradient><linearGradient id="SVGID_3_" gradientUnits="userSpaceOnUse" x1="39.817" x2="39.155" xlink:href="#lg2" y1="23.936" y2="24.989"/><linearGradient id="SVGID_4_" gradientTransform="matrix(-1 0 0 1 822.403 0)" gradientUnits="userSpaceOnUse" x1="814.182" x2="813.52" xlink:href="#lg2" y1="23.936" y2="24.989"/><linearGradient id="SVGID_5_" gradientUnits="userSpaceOnUse" x1="36.079" x2="36.079" xlink:href="#lg1" y1="39.567" y2="44.051"/><linearGradient id="SVGID_6_" gradientUnits="userSpaceOnUse" x1="36.12" x2="36.12" xlink:href="#lg1" y1="39.567" y2="44.051"/><linearGradient id="SVGID_7_" gradientUnits="userSpaceOnUse" x1="11.92" x2="11.92" xlink:href="#lg1" y1="39.567" y2="44.051"/><linearGradient id="SVGID_8_" gradientUnits="userSpaceOnUse" x1="11.962" x2="11.962" xlink:href="#lg1" y1="39.567" y2="44.051"/><linearGradient id="lg3"><stop offset="0" stop-color="#76ccf8"/><stop offset="1" stop-color="#4981f8"/></linearGradient><linearGradient id="SVGID_9_" gradientUnits="userSpaceOnUse" x1="24" x2="24" xlink:href="#lg3" y1="26.78" y2="38.766"/><linearGradient id="SVGID_10_" gradientUnits="userSpaceOnUse" x1="23.977" x2="23.977" xlink:href="#lg3" y1="26.158" y2="17.421"/><linearGradient id="lg4"><stop offset="0" stop-color="#eef4ff"/><stop offset="1" stop-color="#5bdbfd"/></linearGradient><linearGradient id="SVGID_11_" gradientUnits="userSpaceOnUse" x1="12.049" x2="35.929" xlink:href="#lg4" y1="21.782" y2="21.782"/><linearGradient id="lg5"><stop offset="0" stop-color="#d0e4ff"/><stop offset="1" stop-color="#c2cffd"/></linearGradient><linearGradient id="SVGID_12_" gradientTransform="matrix(-1 0 0 1 761.629 0)" gradientUnits="userSpaceOnUse" x1="722.46" x2="728.745" xlink:href="#lg5" y1="35.033" y2="35.033"/><linearGradient id="SVGID_13_" gradientUnits="userSpaceOnUse" x1="8.832" x2="15.116" xlink:href="#lg5" y1="35.033" y2="35.033"/><linearGradient id="SVGID_14_" gradientUnits="userSpaceOnUse" x1="24" x2="24" y1="25.351" y2="31.248"><stop offset="0" stop-color="#197bff"/><stop offset=".3295" stop-color="#257cfd" stop-opacity=".671"/><stop offset=".9218" stop-color="#4480f9" stop-opacity=".078"/><stop offset="1" stop-color="#4981f8" stop-opacity="0"/></linearGradient><linearGradient id="SVGID_15_" gradientUnits="userSpaceOnUse" x1="25.286" x2="24.029" xlink:href="#lg2" y1="23.99" y2="29.317"/><linearGradient id="SVGID_16_" gradientUnits="userSpaceOnUse" x1="24" x2="24" xlink:href="#lg1" y1="32.721" y2="35.529"/><linearGradient id="SVGID_17_" gradientUnits="userSpaceOnUse" x1="24.605" x2="24.605" xlink:href="#lg1" y1="32.721" y2="35.529"/><linearGradient id="SVGID_18_" gradientUnits="userSpaceOnUse" x1="24" x2="24" xlink:href="#lg1" y1="38.946" y2="39.493"/><linearGradient id="SVGID_19_" gradientUnits="userSpaceOnUse" x1="24" x2="24" xlink:href="#lg4" y1="26.78" y2="38.766"/><linearGradient id="SVGID_20_" gradientUnits="userSpaceOnUse" x1="24" x2="24" y1="4.077" y2="21.766"><stop offset="0" stop-color="#ffc200"/><stop offset=".268" stop-color="#fb0"/><stop offset=".659" stop-color="#ffa801"/><stop offset="1" stop-color="#ff9102"/></linearGradient><g><path d="m38.4913 23.9563c-.6149.4257-.473 1.6791-.473 1.6791l.5676.1419h-2.2019v.7921c.4216.0103.8765.0131 1.3342-.0007h.0054l.0002-.0002c1.6196-.0493 3.239-.2991 3.2743-1.0987.071-1.6081-1.8919-1.9392-2.5068-1.5135z" fill="url(#SVGID_1_)"/><path d="m9.5087 23.9563c.6149.4257.473 1.6791.473 1.6791l-.5676.1419h2.2019v.7921c-.4216.0103-.8765.0131-1.3342-.0007h-.0054l-.0002-.0002c-1.6196-.0493-3.239-.2991-3.2743-1.0987-.071-1.6081 1.8919-1.9392 2.5068-1.5135z" fill="url(#SVGID_2_)"/><ellipse cx="39.391" cy="24.614" fill="url(#SVGID_3_)" rx=".94" ry=".701"/><ellipse cx="8.648" cy="24.614" fill="url(#SVGID_4_)" rx=".94" ry=".701"/><path d="m32.9474 39.3448v3.1514c0 .8305.647 1.5037 1.4451 1.5037h3.373c.7981 0 1.4451-.6733 1.4451-1.5037v-3.1514z" fill="url(#SVGID_5_)"/><path d="m38.3158 39.3448c0 2.055-1.601 3.7209-3.5758 3.7209h-1.2422c-.1646 0-.3202-.0348-.4677-.0876.1938.5927.7272 1.0219 1.3624 1.0219h3.373c.7981 0 1.4451-.6732 1.4451-1.5037v-3.1514h-.8948z" fill="url(#SVGID_6_)" opacity=".5"/><path d="m8.7888 39.3448v3.1514c0 .8305.647 1.5037 1.4451 1.5037h3.373c.7981 0 1.4451-.6733 1.4451-1.5037v-3.1514z" fill="url(#SVGID_7_)"/><path d="m14.1572 39.3448c0 2.055-1.601 3.7209-3.5758 3.7209h-1.2422c-.1646 0-.3202-.0348-.4677-.0876.1938.5927.7272 1.0219 1.3624 1.0219h3.373c.7981 0 1.4451-.6732 1.4451-1.5037v-3.1514h-.8948z" fill="url(#SVGID_8_)" opacity=".5"/><path d="m10.3671 26.3103h27.2204l2.808 3.8165c.3924.5444.6045 1.2066.6045 1.887v6.4683c0 1.5049-1.1724 2.7248-2.6186 2.7248h-28.7628c-1.4462 0-2.6186-1.2199-2.6186-2.7248v-6.4683c0-.6805.2121-1.3426.6045-1.8869z" fill="url(#SVGID_9_)"/><path d="m10.3671 26.3103 3.2367-8.0419c.3374-.7724 1.0777-1.2684 1.8931-1.2684h17.0061c.8155 0 1.5557.496 1.8932 1.2685l3.1914 8.0419h-27.2205z" fill="url(#SVGID_10_)"/><path d="m35.8778 24.3779-2.1482-5.7573c-.0985-.2641-.3247-.4354-.5748-.4354h-18.3312c-.2502 0-.4763.1712-.5749.4354l-2.1481 5.7573c-.1769.4741.1258 1.0014.5749 1.0014h22.6274c.449 0 .7517-.5273.5749-1.0014z" fill="#fff"/><path d="m35.8778 24.3779-2.1482-5.7573c-.0986-.2641-.3247-.4354-.5748-.4354h-1.5991c.9574 2.5659-.6812 5.4203-3.1116 5.4203h-16.0553l-.2882.7724c-.1769.4741.1259 1.0014.5749 1.0014h22.6274c.449 0 .7517-.5274.5749-1.0014z" fill="url(#SVGID_11_)" opacity=".6"/><g><g><path d="m33.2001 34.7052c.7664-.5844 2.7908-2.0009 4.5477-2.1154.8234-.0537 1.5768.5745 1.6853 1.4256.063.4938.0079 1.0505-.3778 1.487-.6913.7824-3.9631.7195-5.4421.6483-.4102-.0197-.729-.3717-.729-.799.0001-.2563.1172-.495.3159-.6465z" fill="#fff"/><path d="m33.2001 34.7052c.2685-.2047.6969-.5126 1.2085-.8297-.1461.1044-.2766.2004-.3803.2795-.1987.1515-.3158.3902-.3158.6465 0 .4273.3188.7793.729.799 1.1763.0566 3.4829.1065 4.7271-.2685-.0378.0569-.0659.1168-.1132.1704-.6913.7824-3.9631.7195-5.4421.6483-.4102-.0197-.729-.3717-.729-.799 0-.2563.1171-.495.3158-.6465z" fill="url(#SVGID_12_)"/></g><g><path d="m14.7999 34.7052c-.7664-.5844-2.7908-2.0009-4.5477-2.1154-.8234-.0537-1.5768.5745-1.6853 1.4256-.063.4938-.0079 1.0505.3778 1.487.6913.7824 3.9631.7195 5.4421.6483.4102-.0197.729-.3717.729-.799-.0001-.2563-.1172-.495-.3159-.6465z" fill="#fff"/><path d="m14.7999 34.7052c-.2685-.2047-.697-.5126-1.2085-.8297.1461.1044.2766.2004.3803.2795.1987.1515.3158.3902.3158.6465 0 .4273-.3188.7793-.729.799-1.1763.0566-3.4829.1065-4.7271-.2685.0378.0569.0659.1168.1132.1704.6913.7824 3.9631.7195 5.4421.6483.4102-.0197.729-.3717.729-.799 0-.2563-.1171-.495-.3158-.6465z" fill="url(#SVGID_13_)"/></g></g><path d="m38.1851 28.8357-.8977-1.3338c-.2046-.3041-.5389-.4851-.8957-.4851h-24.8672c-.3746 0-.7231.1995-.9236.5287l-.7859 1.2902c-.2915.6134-.073 1.4472.4322 1.6498l4.0473 1.6223c.7922.3176 1.6122.4787 2.4361.4787h6.8333.8721 6.8333c.824 0 1.6439-.1611 2.4361-.4787l4.0473-1.6223c.5054-.2025.7239-1.0363.4324-1.6498z" fill="url(#SVGID_14_)"/><path d="m16.7307 32.2139c-.7807 0-1.5571-.1527-2.3072-.4537l-4.0477-1.622c-.1092-.0436-.2071-.1628-.2682-.3264-.097-.2591-.0865-.5701.028-.8101l.7676-1.2574c.1354-.2218.3679-.3546.6212-.3546h24.8674c.2403 0 .4648.1218.602.3264l.8974 1.3338c.0874.1918.0979.5028.0017.7619-.062.1637-.159.2828-.2682.3264l-4.0473 1.622c-.7506.3009-1.5273.4537-2.3076.4537z" fill="url(#SVGID_15_)"/><path d="m30.9432 32.5387h-6.2652-1.356-6.2653c-.2918 0-.487.3124-.3687.5899l1.5425 3.6187c.0647.1517.2092.2495.3687.2495h4.7228 1.3559 4.7228c.1595 0 .304-.0978.3687-.2495l1.5425-3.6187c.1184-.2775-.0769-.5899-.3687-.5899z" fill="url(#SVGID_16_)"/><path d="m30.9433 32.5387h-1.1586c-.867 2.034-2.8045 3.3453-4.9429 3.3453h-1.4682-1.3559-4.1551l.3679.8632c.0647.1517.2092.2496.3687.2496h4.7228 1.3559 4.7228c.1595 0 .304-.0978.3687-.2495l1.5425-3.6187c.1184-.2776-.0768-.5899-.3686-.5899z" fill="url(#SVGID_17_)" opacity=".5"/><path d="m36.3531 38.9103h-24.7062l-.2425.3106c-.1748.2238-.0217.5585.2555.5585h12.3401 12.3402c.2772 0 .4303-.3347.2555-.5585z" fill="url(#SVGID_18_)"/><path d="m40.3955 30.1269-2.808-3.8165h-.1631l.7351.9992c.4036.5486.6223 1.2203.6223 1.9112 0 5.0772-3.9554 9.1931-8.8347 9.1931h-22.5466c-.1372 0-.269-.0209-.4005-.042v.1103c0 1.5049 1.1724 2.7248 2.6186 2.7248h28.7629c1.4462 0 2.6186-1.2199 2.6186-2.7248v-6.4683c-.0001-.6805-.2122-1.3427-.6046-1.887z" fill="url(#SVGID_19_)" opacity=".6"/><g><circle cx="24" cy="13" fill="url(#SVGID_20_)" r="9"/><path d="m28.7877 10.943c-.1013-.2171-.3195-.3557-.5589-.3557h-2.0879l1.4054-2.8108c.0959-.1911.0856-.4184-.0271-.6005s-.3111-.293-.5251-.293h-3.087c-.2243 0-.4311.1218-.5396.3177l-3.087 5.5566c-.1061.1911-.1037.4245.0072.6126.1109.1887.3135.3045.5324.3045h2.2302l-1.5809 4.7438c-.0941.2816.0259.5903.2852.735.0941.0525.1978.0778.2997.0778.1785 0 .3539-.0772.4751-.2219l6.174-7.4087c.153-.1847.1862-.441.0843-.6574z" fill="#ffea94"/></g></g></svg>