<svg id="Capa_1" enable-background="new 0 0 512 512" height="512" viewBox="0 0 512 512" width="512" xmlns="http://www.w3.org/2000/svg"><g><path d="m222.397 25.593h67.205v36.208h-67.205z" fill="#23f1a8"/><path d="m255.999 25.593h33.602v36.208h-33.602z" fill="#26d192"/><g><g><g><path d="m241.506 165.254h28.989v97.338h-28.989z" fill="#bad5e4"/><path d="m270.494 165.254v23.559c-4.589 1.397-9.457 2.142-14.494 2.142s-9.906-.745-14.494-2.142v-23.559z" fill="#8bbbd3"/></g><g><g><g><g><path d="m222.397 74.666c-7.105 0-12.864-5.76-12.864-12.864v-48.938c0-7.104 5.759-12.864 12.864-12.864s12.864 5.76 12.864 12.864v48.938c0 7.105-5.759 12.864-12.864 12.864z" fill="#8bbbd3"/></g><g><path d="m289.602 74.666c-7.105 0-12.864-5.76-12.864-12.864v-48.938c0-7.104 5.759-12.864 12.864-12.864s12.864 5.76 12.864 12.864v48.938c0 7.105-5.759 12.864-12.864 12.864z" fill="#8bbbd3"/></g></g></g><g><path d="m213.767 128.834v-47.292h84.466v47.291c0 23.325-18.908 42.233-42.233 42.233-23.325.001-42.233-18.908-42.233-42.232z" fill="#107295"/><g fill="#0d5f7f"><path d="m213.767 81.542h84.466v37.819h-84.466z"/><path d="m298.23 81.544v47.293c0 23.32-18.904 42.235-42.235 42.235-4.619 0-9.069-.743-13.237-2.118 16.831-5.565 28.987-21.427 28.987-40.117v-47.293z"/></g></g><path d="m301.302 98.312h-90.601c-4.389 0-7.947-3.558-7.947-7.946v-20.61c0-4.389 3.558-7.946 7.947-7.946h90.601c4.389 0 7.947 3.558 7.947 7.946v20.61c0 4.388-3.558 7.946-7.947 7.946z" fill="#bad5e4"/><path d="m309.253 69.748v20.619c0 4.386-3.56 7.946-7.947 7.946h-24.598c4.386 0 7.946-3.56 7.946-7.946v-20.619c0-4.386-3.56-7.946-7.946-7.946h24.598c4.387 0 7.947 3.56 7.947 7.946z" fill="#8bbbd3"/></g><g><g><g><g><path d="m433.228 344.883h-26.508c-9.374 0-16.973-7.599-16.973-16.973 0-9.374 7.599-16.973 16.973-16.973h26.508c9.374 0 16.973 7.599 16.973 16.973.001 9.374-7.599 16.973-16.973 16.973z" fill="#094c66"/></g><g><path d="m105.279 344.883h-26.507c-9.374 0-16.973-7.599-16.973-16.973 0-9.374 7.599-16.973 16.973-16.973h26.508c9.374 0 16.973 7.599 16.973 16.973 0 9.374-7.6 16.973-16.974 16.973z" fill="#094c66"/></g></g><g><g><path d="m332.236 249.758h-152.472c-27.513 0-51.908 17.689-60.459 43.84l-15.769 48.229h304.927l-15.769-48.23c-8.55-26.15-32.945-43.839-60.458-43.839z" fill="#b5dbfd"/><path d="m394.523 299.214c-8.593 4.456-18.35 6.967-28.682 6.967-32.459 0-59.124-24.761-62.15-56.428h28.548c27.509 0 51.9 17.691 60.452 43.842z" fill="#8dcafc"/><path d="m408.464 341.824h-30.834l-15.768-48.23c-8.552-26.144-32.948-43.835-60.465-43.835h30.838c27.517 0 51.913 17.691 60.465 43.835z" fill="#8dcafc"/><g fill="#d9ecfd"><path d="m242.157 249.758h-31.497c-30.516 30.789-61.133 61.478-91.848 92.07h31.335c30.719-30.641 61.39-61.33 92.01-92.07z"/><path d="m309.704 249.758h-52.689c-30.516 30.789-61.133 61.478-91.848 92.07h52.527c30.719-30.641 61.39-61.33 92.01-92.07z"/></g></g><g><g><g><g><path d="m118.496 512h-29.391c-7.645 0-13.842-6.197-13.842-13.842v-38.257h57.076v38.257c-.001 7.645-6.198 13.842-13.843 13.842z" fill="#054356"/></g><g><path d="m422.895 512h-29.391c-7.645 0-13.842-6.197-13.842-13.842v-38.257h57.076v38.257c0 7.645-6.198 13.842-13.843 13.842z" fill="#054356"/></g></g><path d="m444.385 368.424v72.617h-62.016c-7.091 0-13.883 2.81-18.895 7.821l-6.936 6.926c-1.708 1.719-4.014 2.665-6.422 2.665h-188.231c-2.408 0-4.714-.947-6.422-2.665l-6.936-6.926c-5.012-5.012-11.804-7.821-18.895-7.821h-62.017v-72.617c0-8.048 4.467-15.427 11.598-19.173l25.718-13.471c2.666-1.4 5.629-2.13 8.645-2.13h284.847c3.015 0 5.979.731 8.645 2.13l25.718 13.471c7.133 3.746 11.599 11.125 11.599 19.173z" fill="#fb8627"/><path d="m444.385 368.434v72.606h-32.583v-72.606c0-8.058-4.456-15.437-11.599-19.183l-25.708-13.482c-2.676-1.389-5.64-2.12-8.655-2.12h32.593c3.005 0 5.959.731 8.635 2.12l25.718 13.482c7.133 3.746 11.599 11.125 11.599 19.183z" fill="#f2671f"/><g><path d="m370.029 393.081h-225.022c-4.263 0-7.719-3.455-7.719-7.719 0-4.263 3.455-7.719 7.719-7.719h225.022c4.263 0 7.719 3.455 7.719 7.719s-3.456 7.719-7.719 7.719z" fill="#f2671f"/></g><g><path d="m444.387 432.803v21.587c0 15.057-12.21 27.267-27.267 27.267h-322.24c-15.057 0-27.267-12.21-27.267-27.267v-21.587h62.013c7.092 0 13.883 2.809 18.902 7.828l6.929 6.929c1.711 1.71 4.02 2.659 6.43 2.659h188.225c2.41 0 4.719-.949 6.43-2.659l6.929-6.929c5.019-5.019 11.811-7.828 18.902-7.828z" fill="#0d5f7f"/><path d="m444.387 432.803v21.587c0 15.057-12.21 27.267-27.267 27.267h-32.561l-.013-.013c15.057 0 27.255-12.198 27.255-27.255v-21.587h32.586z" fill="#094c66"/></g><g><g><path d="m83.484 350.975 8.181 28.486c1.114 3.88 4.393 6.75 8.386 7.34l41.877 6.191c3.477.41 6.972-.597 9.699-2.793l12.653-10.19c4.131-3.327 2.768-9.933-2.342-11.353l-44.187-12.28c-.354-.098-.703-.212-1.047-.339l-27.616-10.256c-3.291-1.222-6.573 1.82-5.604 5.194z" fill="#d9ecfd"/></g></g><g><g><path d="m428.741 350.975-8.181 28.486c-1.114 3.88-4.393 6.75-8.386 7.34l-41.877 6.191c-3.477.41-6.972-.597-9.699-2.793l-12.653-10.19c-4.131-3.327-2.768-9.933 2.342-11.353l44.187-12.28c.354-.098.703-.212 1.047-.339l27.616-10.256c3.291-1.222 6.573 1.82 5.604 5.194z" fill="#d9ecfd"/></g></g></g></g></g></g><g><path d="m319.421 450.138h-126.842c-2.842 0-5.146-2.304-5.146-5.146v-46.869c0-2.842 2.304-5.146 5.146-5.146h126.842c2.842 0 5.146 2.304 5.146 5.146v46.869c0 2.842-2.304 5.146-5.146 5.146z" fill="#094c66"/></g><g><g><path d="m214.001 392.979h15.437v57.159h-15.437z" fill="#054356"/></g><g><path d="m248.281 392.979h15.437v57.159h-15.437z" fill="#054356"/></g><g><path d="m282.562 392.979h15.437v57.159h-15.437z" fill="#054356"/></g></g></g><g><g><g id="XMLID_84_"><path d="m127.268 465.007c-4.263 0-7.719-3.455-7.719-7.719v-.118c0-4.263 3.455-7.719 7.719-7.719 4.263 0 7.719 3.455 7.719 7.719v.118c0 4.264-3.455 7.719-7.719 7.719z" fill="#054356"/></g><g id="XMLID_83_"><path d="m98.794 465.007c-4.263 0-7.719-3.455-7.719-7.719v-.118c0-4.263 3.455-7.719 7.719-7.719 4.263 0 7.719 3.455 7.719 7.719v.118c0 4.264-3.456 7.719-7.719 7.719z" fill="#054356"/></g></g><g><g id="XMLID_82_"><path d="m413.206 465.007c-4.263 0-7.719-3.455-7.719-7.719v-.118c0-4.263 3.455-7.719 7.719-7.719 4.263 0 7.719 3.455 7.719 7.719v.118c0 4.264-3.456 7.719-7.719 7.719z" fill="#054356"/></g><g id="XMLID_81_"><path d="m384.732 465.007c-4.263 0-7.719-3.455-7.719-7.719v-.118c0-4.263 3.455-7.719 7.719-7.719s7.719 3.455 7.719 7.719v.118c-.001 4.264-3.456 7.719-7.719 7.719z" fill="#054356"/></g></g></g></g><g><circle cx="370.029" cy="221.748" fill="#23f1a8" r="62.446"/><path d="m432.472 221.748c0 34.487-27.952 62.449-62.449 62.449-5.269 0-10.394-.659-15.283-1.883 27.087-6.823 47.145-31.358 47.145-60.565s-20.058-53.742-47.145-60.565c4.888-1.225 10.014-1.883 15.283-1.883 34.498-.001 62.449 27.961 62.449 62.447z" fill="#26d192"/><g><path d="m359.558 250.232c-2.119 0-4.228-.866-5.753-2.569-2.844-3.176-2.575-8.055.6-10.899l9.581-8.581-5.763-1.456c-2.767-.699-4.922-2.867-5.604-5.637-.682-2.771.219-5.692 2.345-7.596l20.389-18.261c3.177-2.843 8.056-2.575 10.9.6 2.844 3.176 2.575 8.055-.6 10.9l-9.581 8.581 5.763 1.456c2.767.698 4.922 2.867 5.604 5.637.682 2.771-.219 5.692-2.345 7.596l-20.389 18.261c-1.474 1.319-3.314 1.968-5.147 1.968z" fill="#dcfbed"/></g></g></g></g></svg>